<?xml version="1.0" standalone="no"?>
<!DOCTYPE svg PUBLIC "-//W3C//DTD SVG 20010904//EN"
 "http://www.w3.org/TR/2001/REC-SVG-20010904/DTD/svg10.dtd">
<svg version="1.0" xmlns="http://www.w3.org/2000/svg"
 width="260.000000pt" height="260.000000pt" viewBox="0 0 260.000000 260.000000"
 preserveAspectRatio="xMidYMid meet">
<metadata>
Created by potrace 1.11, written by Peter Selinger 2001-2013
</metadata>
<g transform="translate(0.000000,260.000000) scale(0.100000,-0.100000)"
fill="#000000" stroke="none">
<path d="M1392 2585 c-140 -18 -200 -32 -319 -71 -375 -122 -692 -396 -867
-749 -87 -176 -132 -339 -157 -571 -13 -118 -5 -232 28 -408 47 -254 193 -542
368 -727 l49 -52 54 59 c30 32 107 118 172 189 l117 130 -35 40 c-61 70 -150
215 -186 305 -161 403 -21 871 349 1166 358 286 758 296 1192 31 l93 -56 152
170 c84 94 153 176 153 181 0 17 -182 144 -275 192 -182 95 -344 144 -560 171
-145 17 -188 17 -328 0z"/>
<path d="M1386 1953 c-252 -53 -477 -234 -591 -474 -59 -125 -78 -214 -78
-369 0 -107 5 -152 22 -215 86 -321 340 -563 661 -631 87 -18 253 -18 348 2
167 34 317 119 444 252 169 177 248 394 235 642 -21 383 -287 701 -659 790
-101 24 -278 26 -382 3z"/>
</g>
</svg>
