<?xml version="1.0" encoding="utf-8"?>
<!-- Generator: Adobe Illustrator 19.0.0, SVG Export Plug-In . SVG Version: 6.00 Build 0)  -->
<svg version="1.1" xmlns="http://www.w3.org/2000/svg" xmlns:xlink="http://www.w3.org/1999/xlink" x="0px" y="0px"
	 viewBox="0 0 1434.1 425.3" style="enable-background:new 0 0 1434.1 425.3;" xml:space="preserve">
<style type="text/css">
	.st0{fill-rule:evenodd;clip-rule:evenodd;fill:#7F7F7F;}
	.st1{fill-rule:evenodd;clip-rule:evenodd;fill:#FE1109;}
	.st2{fill:#7F7F7F;}
	.st3{fill:#FE1109;}
	.st4{filter:url(#Adobe_OpacityMaskFilter);}
	.st5{fill-rule:evenodd;clip-rule:evenodd;}
	.st6{display:none;mask:url(#SVGID_1_);fill-rule:evenodd;clip-rule:evenodd;fill:#7F7F7F;}
	.st7{filter:url(#Adobe_OpacityMaskFilter_1_);}
	.st8{display:none;mask:url(#SVGID_2_);fill-rule:evenodd;clip-rule:evenodd;fill:#7F7F7F;}
	.st9{filter:url(#Adobe_OpacityMaskFilter_2_);}
	.st10{mask:url(#SVGID_3_);fill:#7F7F7F;}
	.st11{filter:url(#Adobe_OpacityMaskFilter_3_);}
	.st12{mask:url(#SVGID_4_);fill:#7F7F7F;}
	.st13{filter:url(#Adobe_OpacityMaskFilter_4_);}
	.st14{stroke:#000000;stroke-miterlimit:10;}
	.st15{mask:url(#SVGID_5_);fill:#7F7F7F;}
</style>
<g id="Background">
	<polygon class="st0" points="847.1,83.2 847.1,123.7 896.5,123.7 897.3,276.5 945.9,276.5 945.9,123.7 996.9,123.7 996.9,83.2 	"/>
	<rect x="183.4" y="343.6" class="st1" width="1240.8" height="6.5"/>
	<rect x="185.1" y="375.9" class="st0" width="10.5" height="49.3"/>
	<rect x="1069.7" y="375.9" class="st0" width="10.5" height="49.3"/>
	<rect x="1270.5" y="375.9" class="st0" width="10.5" height="49.3"/>
	<polygon class="st0" points="923.2,375.9 923.2,384.8 923.2,394.5 923.2,403.4 923.2,416.4 923.2,425.3 933.8,425.3 958.8,425.3 
		958.8,416.4 933.8,416.4 933.8,403.4 955.6,403.4 955.6,394.5 933.8,394.5 933.8,384.8 958.8,384.8 958.8,375.9 933.8,375.9 	"/>
	<polygon class="st0" points="656.9,383.2 656.9,425.3 667.5,425.3 667.5,383.2 686.1,383.2 686.1,375.9 667.5,375.9 656.9,375.9 
		637.5,375.9 637.5,383.2 	"/>
	<polygon class="st0" points="559.8,375.9 559.8,425.3 570.3,425.3 570.3,387.9 597,425.3 607.6,425.3 607.6,375.9 597,375.9 
		597,410.6 572.5,376.2 570.3,376.2 570.3,375.9 	"/>
	<path class="st0" d="M336.4,375.9v49.3h10.5v-20.2h13l4-0.8l3.2-0.8l4-2.4l2.4-2.4l1.6-3.2l0.8-3.2v-3.2l-1.6-4.9l-2.4-2.4
		l-3.2-2.4l-3.2-2.4l-3.2-0.8h-15.4H336.4z M346.9,397.8v-14.6h4.9h4l4.9,0.8l3.2,1.6l1.6,2.4v4l-1.6,3.2l-3.2,1.6l-4.9,0.8H346.9z"
		/>
	<path class="st0" d="M851.2,375.9v49.3h10.5v-20.2h12.9l4.1-0.8l3.2-0.8l4-2.4l2.4-2.4l1.6-3.2l0.8-3.2v-3.2l-1.6-4.9l-2.4-2.4
		l-3.2-2.4l-3.2-2.4l-3.2-0.8h-15.4H851.2z M861.7,397.8v-14.6h4.9h4l4.8,0.8l3.2,1.6l1.6,2.4v4l-1.6,3.2l-3.2,1.6l-4.8,0.8H861.7z"
		/>
	<polygon class="st0" points="233.6,376.8 249,376.8 266,413.1 283.8,375.9 299.2,375.9 299.2,424.5 288.7,424.5 289.5,385.7 
		271.7,423.7 261.1,423.7 243.3,386.5 244.1,423.7 233.6,423.7 	"/>
	<polygon class="st0" points="408.5,375.1 408.5,424.5 442.5,424.5 442.5,417.2 419,417.2 419,375.1 	"/>
	<polygon class="st0" points="1203.3,375.1 1203.3,424.5 1237.3,424.5 1237.3,417.2 1213.8,417.2 1213.8,375.1 	"/>
	<g>
		<path class="st0" d="M518.5,424.5h11.3L504,375.1h-10.5l0.1,0.2h-0.6l-25.4,49.1h11.3l5.7-11.3h28.2L518.5,424.5z M498.5,385.2
			l9.7,19.1H489L498.5,385.2z"/>
	</g>
	<polygon class="st0" points="1395.9,383.2 1395.9,425.3 1406.4,425.3 1406.4,383.2 1425.1,383.2 1425.1,375.9 1406.4,375.9 
		1395.9,375.9 1376.5,375.9 1376.5,383.2 	"/>
	<g>
		<path class="st0" d="M1162,424.5h11.3l-25.9-49.3h-10.5l0.1,0.2h-0.6l-25.4,49.1h11.3l5.7-11.3h28.2L1162,424.5z M1142,385.2
			l9.7,19.1h-19.3L1142,385.2z"/>
	</g>
	<path class="st0" d="M814,377.6l-0.8,6.5l-9.7-1.6c0,0-14-0.6-12.1,4.9c1.8,5.5,5.5,6.5,12.1,8.1c6.7,1.6,12.7,9.3,13,10.5
		c0.2,1.2,1,2.2,0.8,5.7c-0.2,3.4-2.6,7.3-4,8.1c-1.4,0.8-5.5,3.8-8.1,4.9c-2.6,1-14.2,0.6-17.8,0c-3.6-0.6-4-3.2-4-3.2v-6.5
		c0,0,5.3,1.8,11.3,2.4c6.1,0.6,10.1-1.8,12.1-4c2-2.2,0.1-7.9-3.2-8.9c-4-1.2-14.4-4.9-18.6-10.3c-4.9-6.3-0.6-13.7-0.6-13.7
		s5.1-5.1,16.8-5.1C812.7,375.1,814,377.6,814,377.6z"/>
	<path class="st0" d="M1346.5,377.6l-0.8,6.5l-9.7-1.6c0,0-14-0.6-12.1,4.9c1.8,5.5,5.5,6.5,12.1,8.1c6.7,1.6,12.8,9.3,12.9,10.5
		c0.2,1.2,1,2.2,0.8,5.7c-0.2,3.4-2.6,7.3-4.1,8.1c-1.4,0.8-5.5,3.8-8.1,4.9c-2.6,1-14.2,0.6-17.8,0c-3.6-0.6-4-3.2-4-3.2v-6.5
		c0,0,5.3,1.8,11.3,2.4c6.1,0.6,10.1-1.8,12.1-4c2-2.2,0.1-7.9-3.2-8.9c-4.1-1.2-14.4-4.9-18.6-10.3c-4.9-6.3-0.6-13.7-0.6-13.7
		s5.1-5.1,16.8-5.1C1345.3,375.1,1346.5,377.6,1346.5,377.6z"/>
	<path class="st0" d="M1037.4,384.8v-7.3c0,0-3.8-2.4-10.5-3.2c-6.7-0.8-19.7,1.6-22.7,4c-3,2.4-10,5.7-13,15.4
		c-3,9.7,3.2,20.8,7.3,23.5c4,2.7,4.9,5.9,17.8,7.3c13,1.3,20.2-1.6,20.2-1.6v-8.1c0,0-3.8,1.6-11.3,2.4c-7.5,0.8-15.4-3.2-15.4-3.2
		s-8.6-4.9-8.1-13.8c0.5-8.9,1.1-10.5,8.1-14.5c7-4.1,13-3.2,13-3.2S1031.4,382.7,1037.4,384.8z"/>
</g>
<g id="Layer_3">
	<path id="XMLID_4_" class="st2" d="M269.4,89.1l38.8-43.3c-74.8-65.4-190-60-257.7,11.1c-68.8,72.3-67.3,188.9,4.4,260l42.2-46.7
		C36.1,202.5,66.7,134,93.9,103.6C122.3,71.7,180.5,28,269.4,89.1z"/>
	<ellipse id="XMLID_3_" class="st3" cx="186.6" cy="181.6" rx="105" ry="105.6"/>
</g>
<g id="Layer_1">
	<path class="st0" d="M435.2,80.6v45.7c0,0-21-9-41.2,1.5c-20.4,10.6-24.8,26.3-24.8,26.3v124.5h-49.5V85.1h46.5v21.7
		c0,0,8.3-14.2,30-21C418,79.1,435.2,80.6,435.2,80.6z"/>
	<path class="st0" d="M711.2,276.3V151.1c0,0,3.8-30.8,39.7-30.8c36,0,38.3,29.3,38.3,29.3v126h45.7V138.3c0,0-9.8-42-51.7-53.2
		c-42-11.3-73.5,15-73.5,15v-15h-45.8v191.2H711.2z"/>
	<defs>
		<filter id="Adobe_OpacityMaskFilter" filterUnits="userSpaceOnUse" x="1410" y="490" width="207" height="204.7">
			<feFlood  style="flood-color:white;flood-opacity:1" result="back"/>
			<feBlend  in="SourceGraphic" in2="back" mode="normal"/>
		</filter>
	</defs>
	<mask maskUnits="userSpaceOnUse" x="1410" y="490" width="207" height="204.7" id="SVGID_1_">
		<g class="st4">
			<path class="st5" d="M1515,530.5c48.7,0,60,42.8,60,42.8h-121.5C1453.5,573.3,1466.2,530.5,1515,530.5z"/>
		</g>
	</mask>
	<path class="st6" d="M1502.2,656.5c49.5,8.3,71.2-31.5,71.2-31.5h43.5c0,0-26.9,69.7-110.2,69.7c-88.5,0-96.7-93.7-96.7-93.7v-24.7
		c0,0,18.8-86.2,105.7-86.2s101.2,84.7,101.2,84.7V604h-164.2C1452.7,604,1452.7,648.2,1502.2,656.5z"/>
	<defs>
		<filter id="Adobe_OpacityMaskFilter_1_" filterUnits="userSpaceOnUse" x="1972.4" y="493.1" width="207" height="204.7">
			<feFlood  style="flood-color:white;flood-opacity:1" result="back"/>
			<feBlend  in="SourceGraphic" in2="back" mode="normal"/>
		</filter>
	</defs>
	<mask maskUnits="userSpaceOnUse" x="1972.4" y="493.1" width="207" height="204.7" id="SVGID_2_">
		<g class="st7">
			<path class="st5" d="M2077.4,533.6c48.7,0,60,42.8,60,42.8h-121.5C2015.9,576.4,2028.7,533.6,2077.4,533.6z"/>
		</g>
	</mask>
	<path class="st8" d="M2064.7,659.6c49.5,8.3,71.2-31.5,71.2-31.5h43.5c0,0-26.9,69.7-110.2,69.7c-88.5,0-96.7-93.7-96.7-93.7v-24.7
		c0,0,18.8-86.2,105.7-86.2s101.2,84.7,101.2,84.7v29.2h-164.2C2015.2,607.1,2015.2,651.4,2064.7,659.6z"/>
</g>
<g id="Layer_4">
</g>
<g id="Layer_5">
	<defs>
		<filter id="Adobe_OpacityMaskFilter_2_" filterUnits="userSpaceOnUse" x="437.4" y="75.6" width="207" height="207">
			<feFlood  style="flood-color:white;flood-opacity:1" result="back"/>
			<feBlend  in="SourceGraphic" in2="back" mode="normal"/>
		</filter>
	</defs>
	<mask maskUnits="userSpaceOnUse" x="437.4" y="75.6" width="207" height="207" id="SVGID_3_">
		<g class="st9">
			<path d="M476.9,162.7c8.6-27.5,34.1-46,62.3-46c32,0,52.7,20,60,46"/>
			<path d="M476.8,189.5c0.1,5.4,3.2,13.8,7.3,22c11.4,22.7,40.5,32.6,64,30c30.6-3.4,45.7-27.4,48.5-31.5l49.5-0.1v-20.4H476.8z"/>
		</g>
	</mask>
	<circle class="st10" cx="540.9" cy="179.1" r="103.5"/>
	<defs>
		<filter id="Adobe_OpacityMaskFilter_3_" filterUnits="userSpaceOnUse" x="996.9" y="75.6" width="207" height="207">
			<feFlood  style="flood-color:white;flood-opacity:1" result="back"/>
			<feBlend  in="SourceGraphic" in2="back" mode="normal"/>
		</filter>
	</defs>
	<mask maskUnits="userSpaceOnUse" x="996.9" y="75.6" width="207" height="207" id="SVGID_4_">
		<g class="st11">
			<path d="M1036.3,162.7c8.6-27.5,34.1-46,62.3-46c32,0,52.7,20,60,46"/>
			<path d="M1036.2,189.5c0.1,5.4,3.2,13.8,7.3,22c11.4,22.7,40.5,32.6,64,30c30.6-3.4,45.7-27.4,48.5-31.5l49.5-0.1v-20.4H1036.2z"
				/>
		</g>
	</mask>
	<circle class="st12" cx="1100.4" cy="179.1" r="103.5"/>
	<defs>
		<filter id="Adobe_OpacityMaskFilter_4_" filterUnits="userSpaceOnUse" x="1220.3" y="73.4" width="213.8" height="213.8">
			<feFlood  style="flood-color:white;flood-opacity:1" result="back"/>
			<feBlend  in="SourceGraphic" in2="back" mode="normal"/>
		</filter>
	</defs>
	<mask maskUnits="userSpaceOnUse" x="1220.3" y="73.4" width="213.8" height="213.8" id="SVGID_5_">
		<g class="st13">
			<circle cx="1327.3" cy="181" r="70"/>
			<rect x="1376.5" y="142.7" class="st14" width="75.4" height="76"/>
		</g>
	</mask>
	<circle class="st15" cx="1327.2" cy="180.3" r="106.9"/>
</g>
</svg>
